<?xml version="1.0" encoding="UTF-8"?>
<!-- Generator: Adobe Illustrator 27.5.0, SVG Export Plug-In . SVG Version: 6.00 Build 0)  -->
<svg xmlns="http://www.w3.org/2000/svg" xmlns:xlink="http://www.w3.org/1999/xlink" version="1.1" id="Lag_1" x="0px" y="0px" viewBox="0 0 682 264" style="enable-background:new 0 0 682 264;" xml:space="preserve">
<style type="text/css">
	.st0{fill:#FFEC00;}
</style>
<g>
	<path class="st0" d="M601.5,136.6L347.4,38c-2.1-0.8-5-1.3-8-1.3c-3,0-5.8,0.4-8,1.3l-6.1,2.4c0,0,243.1,94.3,245.5,95.3   c1.8,0.7,3,2.3,3,4c0,1.8-1.1,3.3-3,4l-244.5,94.4l6.4,2.5c2.1,0.8,5,1.3,8,1.3c3,0,5.8-0.5,7.9-1.3l252.8-97.6   c1.9-0.7,3-1.9,3-3.2C604.5,138.6,603.4,137.4,601.5,136.6z"></path>
	<path class="st0" d="M655.9,136.9L403.4,38.9c-2.1-0.8-5-1.3-8-1.3c-3,0-5.8,0.5-8,1.3l-6.1,2.4c0,0,241.5,93.7,243.9,94.6   c1.8,0.7,3,2.3,3,4c0,1.8-1.1,3.3-3,4l-241.4,93.3l6.4,2.5c2.1,0.8,5,1.3,8,1.3c3,0,5.8-0.5,7.9-1.3l249.7-96.5   c1.9-0.7,3-1.9,3-3.2C658.9,138.8,657.8,137.6,655.9,136.9z"></path>
	<g>
		<path class="st0" d="M547.1,136.7L296.9,39.3c-2.3-0.9-5.2-1.3-8.2-1.3v0c-3,0-6,0.4-8.3,1.3L30.4,136c-3.9,1.5-3.9,4.5,0,6    l250.1,97.5c2.2,0.9,5.2,1.3,8.2,1.3v0c3,0,6-0.4,8.3-1.3l250-96.7C550.9,141.2,550.9,138.2,547.1,136.7z"></path>
		<g>
			<g>
				<g>
					<path d="M259.9,118c-2.7-2.5-9.4-7.9-21.5-7.9c-12.1,0-18.8,5.4-21.5,7.9c-2.7,2.5-8.6,9.1-8.6,21.4c0,12.1,5.8,18.8,8.5,21.4       c2.7,2.5,9.6,7.9,21.5,7.9c11.9,0,18.8-5.4,21.5-7.9c2.7-2.6,8.6-9.5,8.6-21.4C268.4,127.3,262.5,120.5,259.9,118z        M249.4,150.7c-1.3,1.4-4.6,4.4-11.1,4.4c-6.6,0-9.8-3.1-11.1-4.5c-1.3-1.4-4.1-5-4.1-11.4c0-6.4,2.8-10,4.2-11.4       c1.3-1.4,4.8-4.4,11.1-4.4c6.2,0,9.8,3.1,11.1,4.5c1.3,1.4,4.2,4.9,4.2,11.4C253.6,145.7,250.7,149.3,249.4,150.7z"></path>
					<polygon points="292.8,111.4 278.4,111.4 278.4,167.3 314.5,167.3 314.5,153.9 292.8,153.9      "></polygon>
					<path d="M181.1,155.1c-5.5,0-8.5-3-9.7-4.4c-1.2-1.4-4-5-4-11.4c0-6.1,2.8-10,4.1-11.4c1.2-1.4,4.8-4.4,10.1-4.4       c6.9,0,9.9,4.9,9.9,4.9l11.1-9c0,0-5.6-9.3-19.8-9.3c-12,0-18.8,5.4-21.5,7.9c-2.7,2.5-8.5,9.5-8.5,21.4       c0,12.1,5.8,18.8,8.5,21.4c2.7,2.5,9.6,7.9,21.5,7.9c15.1,0,21.1-10.8,21.1-10.8l-11.9-8.9       C191.8,148.8,188.9,155.1,181.1,155.1z"></path>
					<polygon points="355.4,111.5 344,111.5 319.8,167.4 335.6,167.3 349.4,131.8 356.1,148.9 348.7,148.9 343.8,161.5 361.2,161.5        363.6,167.4 379.7,167.4      "></polygon>
					<path d="M417.4,136.9c-3.8-2.3-7.6-3.1-12.1-4.5c-3.9-1.2-5.5-2.4-5.5-4.6c0-1.4,1.2-4.2,6.6-4.2c6.3,0,8.4,4.2,8.4,4.2       l10-10.9c-0.6-0.6-4.2-4.1-9.1-5.5c-5.9-1.7-11.6-1.9-17.1-0.2c-7.6,2.3-13.7,8.3-13.7,17.4c0,8.3,5.2,11.3,7.1,12.7       c2.7,1.8,10.4,4.1,12.3,4.7c1.7,0.6,5.6,1.8,5.6,4.9c0,3.6-5.7,5.2-10.4,3.7c-4.2-1.4-6.1-4.6-6.5-5.2l-10.3,11.3       c0.9,1,5,4.8,9.7,6.3c3.1,1,6.5,1.7,10.1,1.7c8.6,0,13.2-3,15.2-4.6c2-1.6,6.6-5.7,6.6-14.3       C424.4,141.4,419.8,138.5,417.4,136.9z"></path>
				</g>
			</g>
		</g>
	</g>
</g>
</svg>
