<svg width="24" height="24" viewBox="0 0 23 23" fill="none" xmlns="http://www.w3.org/2000/svg">
<path d="M3.09253 5.63644C3.91414 12.8995 10.1005 19.0859 17.3636 19.9075C18.3109 20.0146 19.1346 19.3271 19.3216 18.3922L19.7004 16.4979C19.8773 15.6135 19.4404 14.7202 18.6337 14.3168L17.3983 13.6992C16.5886 13.2943 15.6052 13.5264 15.062 14.2507C14.7082 14.7224 14.14 15.01 13.5962 14.782C11.7272 13.9986 9.00142 11.2728 8.21796 9.40381C7.99002 8.86004 8.27761 8.2918 8.7493 7.93802C9.47356 7.39483 9.70571 6.41142 9.30084 5.60168L8.68316 4.36632C8.27982 3.55963 7.38646 3.12271 6.50207 3.29959L4.60777 3.67845C3.67292 3.86542 2.98537 4.68912 3.09253 5.63644Z" stroke="white" stroke-width="2" stroke-linecap="round" stroke-linejoin="round"/>
</svg>
