<svg width="44" height="44" viewBox="0 0 44 44" fill="none" xmlns="http://www.w3.org/2000/svg">
<path d="M25 26H17.7324M25 26V18.5M25 26H26.2676M14.2676 26H13C12.4477 26 12 25.5523 12 25V16C12 15.4477 12.4477 15 13 15H24C24.5523 15 25 15.4477 25 16V18.5M25 18.5H29L32 22V26H29.7324M18 27C18 28.1046 17.1046 29 16 29C14.8954 29 14 28.1046 14 27C14 25.8954 14.8954 25 16 25C17.1046 25 18 25.8954 18 27ZM30 27C30 28.1046 29.1046 29 28 29C26.8954 29 26 28.1046 26 27C26 25.8954 26.8954 25 28 25C29.1046 25 30 25.8954 30 27Z" stroke="#3D3D3D" stroke-width="2" stroke-linecap="round" stroke-linejoin="round"/>
</svg>
